HIERARCHY
ROOT Hips
{
	OFFSET 0.00000 0.00000 0.00000
	CHANNELS 6 Xposition Yposition Zposition Zrotation Yrotation Xrotation 
	JOINT LHipJoint
	{
		OFFSET 0 0 0
		CHANNELS 3 Zrotation Yrotation Xrotation
		JOINT LeftUpLeg
		{
			OFFSET 1.56857 -1.73443 1.15205
			CHANNELS 3 Zrotation Yrotation Xrotation
			JOINT LeftLeg
			{
				OFFSET 2.39362 -6.57643 0.00000
				CHANNELS 3 Zrotation Yrotation Xrotation
				JOINT LeftFoot
				{
					OFFSET 2.50952 -6.89485 0.00000
					CHANNELS 3 Zrotation Yrotation Xrotation
					JOINT LeftToeBase
					{
						OFFSET 0.17171 -0.47178 1.88682
						CHANNELS 3 Zrotation Yrotation Xrotation
						End Site
						{
							OFFSET 0.00000 -0.00000 0.98146
						}
					}
				}
			}
		}
	}
	JOINT RHipJoint
	{
		OFFSET 0 0 0
		CHANNELS 3 Zrotation Yrotation Xrotation
		JOINT RightUpLeg
		{
			OFFSET -1.28153 -1.73443 1.15205
			CHANNELS 3 Zrotation Yrotation Xrotation
			JOINT RightLeg
			{
				OFFSET -2.26861 -6.23296 0.00000
				CHANNELS 3 Zrotation Yrotation Xrotation
				JOINT RightFoot
				{
					OFFSET -2.54143 -6.98254 0.00000
					CHANNELS 3 Zrotation Yrotation Xrotation
					JOINT RightToeBase
					{
						OFFSET -0.23309 -0.64041 1.93119
						CHANNELS 3 Zrotation Yrotation Xrotation
						End Site
						{
							OFFSET -0.00000 -0.00000 1.02013
						}
					}
				}
			}
		}
	}
	JOINT LowerBack
	{
		OFFSET 0 0 0
		CHANNELS 3 Zrotation Yrotation Xrotation
		JOINT Spine
		{
			OFFSET -0.07096 2.10460 -0.27878
			CHANNELS 3 Zrotation Yrotation Xrotation
			JOINT Spine1
			{
				OFFSET -0.00826 2.13662 -0.08279
				CHANNELS 3 Zrotation Yrotation Xrotation
				JOINT Neck
				{
					OFFSET 0 0 0
					CHANNELS 3 Zrotation Yrotation Xrotation
					JOINT Neck1
					{
						OFFSET 0.03239 1.77799 0.24435
						CHANNELS 3 Zrotation Yrotation Xrotation
						JOINT Head
						{
							OFFSET 0.01026 1.74194 -0.49664
							CHANNELS 3 Zrotation Yrotation Xrotation
							End Site
							{
								OFFSET 0.00170 1.83057 -0.19653
							}
						}
					}
				}
				JOINT LeftShoulder
				{
					OFFSET 0 0 0
					CHANNELS 3 Zrotation Yrotation Xrotation
					JOINT LeftArm
					{
						OFFSET 3.19178 1.35907 -0.31412
						CHANNELS 3 Zrotation Yrotation Xrotation
						JOINT LeftForeArm
						{
							OFFSET 4.85247 -0.00000 -0.00000
							CHANNELS 3 Zrotation Yrotation Xrotation
							JOINT LeftHand
							{
								OFFSET 3.55584 -0.00000 0.00000
								CHANNELS 3 Zrotation Yrotation Xrotation
								JOINT LeftFingerBase
								{
									OFFSET 0 0 0
									CHANNELS 3 Zrotation Yrotation Xrotation
									JOINT LeftHandIndex1
									{
										OFFSET 0.69320 -0.00000 0.00000
										CHANNELS 3 Zrotation Yrotation Xrotation
										End Site
										{
											OFFSET 0.55888 -0.00000 0.00000
										}
									}
								}
								JOINT LThumb
								{
									OFFSET 0 0 0
									CHANNELS 3 Zrotation Yrotation Xrotation
									End Site
									{
										OFFSET 0.56741 -0.00000 0.56741
									}
								}
							}
						}
					}
				}
				JOINT RightShoulder
				{
					OFFSET 0 0 0
					CHANNELS 3 Zrotation Yrotation Xrotation
					JOINT RightArm
					{
						OFFSET -3.28999 1.24191 -0.26899
						CHANNELS 3 Zrotation Yrotation Xrotation
						JOINT RightForeArm
						{
							OFFSET -4.64462 -0.00000 0.00000
							CHANNELS 3 Zrotation Yrotation Xrotation
							JOINT RightHand
							{
								OFFSET -3.40703 -0.00000 0.00000
								CHANNELS 3 Zrotation Yrotation Xrotation
								JOINT RightFingerBase
								{
									OFFSET 0 0 0
									CHANNELS 3 Zrotation Yrotation Xrotation
									JOINT RightHandIndex1
									{
										OFFSET -0.61958 -0.00000 0.00000
										CHANNELS 3 Zrotation Yrotation Xrotation
										End Site
										{
											OFFSET -0.49952 -0.00000 0.00000
										}
									}
								}
								JOINT RThumb
								{
									OFFSET 0 0 0
									CHANNELS 3 Zrotation Yrotation Xrotation
									End Site
									{
										OFFSET -0.50715 -0.00000 0.50715
									}
								}
							}
						}
					}
				}
			}
		}
	}
}
MOTION
Frames: 6
Frame Time: 0.0338983
0.00 0.00 0.00 0 0 0 0 0 0 -21 0 0 0 0 0 0 0 0 0 0 0 0 0 0 21 0 0 0 0 0 0 0 0 0 0 0 0 0 0 0 0 0 0 0 0 0 0 -16 0 0 21 0 0 11 0 0 0 -8 0 0 0 0 0 0 0 0 0 0 0 0 0 0 0 0 0 0 0 0 8 0 0 0 0 0 0 0 0 0 0 0 0 0 0 0 0 0
0.00 0.00 0.00 -16.5180 52.9448 -18.8957 0.0000 0.0000 0.0000 -17.6396 13.4715 0.4805 1.5167 7.7771 22.0391 -0.1808 8.4668 -7.2598 0.2703 3.3444 9.2391 0.0000 0.0000 0.0000 0.2177 -22.4598 -30.3725 -4.9598 -13.3384 40.6487 -0.8884 -13.8483 -27.6410 -2.1307 -9.1332 26.2128 -9.7584 1.7681 16.2400 -3.5361 0.6827 3.9568 1.5971 0.4911 -4.9084 -0.3788 5.9278 -26.0679 -0.0373 8.2653 17.1326 1.3218 3.7879 9.6486 0.0000 0.0000 0.0000 -45.5607 -42.8081 40.3416 46.1210 -51.3060 -23.1104 -0.0000 0.0000 -17.8597 39.3224 -23.2290 -17.9044 -7.1250 0.0000 -0.0000 6.1670 1.1050 -6.0825 0.0000 0.0000 0.0000 57.3649 -11.0342 -5.8002 -15.3582 24.6427 -3.3739 0.0000 -0.0000 -8.0825 -26.1321 -35.8015 16.0127 7.1250 -0.0000 -0.0000 10.5375 -68.4870 -5.9642
0.00 0.00 0.00 -26.5500 60.9072 -31.7397 0.0000 0.0000 0.0000 -10.5473 14.3695 0.3486 0.5526 4.7618 13.2305 -0.0997 9.9890 -12.4469 0.0008 0.1824 0.5012 0.0000 0.0000 0.0000 6.9357 -17.3599 -37.8504 -5.2272 -13.6352 41.7952 -1.0971 -14.2060 -29.4562 -1.6107 -8.0033 22.7240 -10.4614 -1.3344 19.3610 -3.3203 -3.6085 5.9329 3.1287 -1.6578 -3.9079 5.4248 9.5052 -22.3874 -4.9143 12.4624 17.3599 -0.6877 5.5725 9.8228 -0.0000 0.0000 0.0000 -46.5473 -68.1086 50.0099 77.3335 -59.3850 -49.0531 -0.0000 0.0000 -21.4966 38.7349 -30.4600 -22.1287 -7.1250 0.0000 -0.0000 4.1754 -6.9463 -4.6614 -0.0000 0.0000 0.0000 32.0313 -26.4948 -5.8514 -19.3057 29.7968 -5.1819 0.0000 -0.0000 -19.3716 -21.8196 -35.6567 13.1369 7.1250 -0.0000 -0.0000 15.8710 -67.0388 -8.5105
0.00 0.00 0.00 -29.9608 61.8338 -35.9150 0.0000 0.0000 0.0000 -12.1723 11.7023 -2.8789 0.5363 4.6925 13.0337 -0.1167 9.7869 -11.7615 0.4431 4.2711 11.8408 0.0000 0.0000 0.0000 8.3707 -13.6676 -34.2314 -3.3735 -11.2765 33.2182 -1.3038 -12.5559 -29.3727 -1.7682 -8.3657 23.8304 -9.3588 -1.7936 20.1670 -3.1181 -3.9483 6.9526 2.8109 -1.8626 -3.2473 6.2744 10.1176 -21.6294 -5.2237 13.0898 16.5315 -0.8637 5.9155 9.5137 0.0000 0.0000 0.0000 -69.5508 -68.5051 70.3045 90.9931 -59.9963 -60.8601 -0.0000 0.0000 -20.2510 33.1237 -30.9837 -18.5668 -7.1250 0.0000 -0.0000 0.9405 -5.6561 -1.0287 0.0000 0.0000 0.0000 26.9951 -25.7419 -15.6621 -23.2107 34.3184 -7.2567 0.0000 -0.0000 -22.4439 -17.5076 -34.4591 10.1199 7.1250 -0.0000 -0.0000 19.7291 -64.6819 -9.5728
0.00 0.00 0.00 -30.2687 60.9723 -38.5205 0.0000 0.0000 0.0000 -16.1119 10.0405 -4.9472 2.8711 10.4834 30.5567 1.9473 3.9605 -28.0193 0.8035 5.7210 15.9771 0.0000 0.0000 0.0000 11.1186 -7.1764 -31.3562 -2.6383 -10.0852 29.2530 -1.4236 -11.9097 -29.6347 -1.0022 -6.3705 17.8632 -6.6903 -1.9992 21.9180 -3.0889 -3.7104 8.1379 1.3499 -1.7196 -3.0837 5.5987 10.5198 -19.4176 -4.2447 13.6966 15.5099 -0.4743 6.3442 8.6859 0.0000 -0.0000 0.0000 -92.9932 -61.5349 92.6156 98.5661 -59.7209 -67.4115 -0.0000 0.0000 -19.0632 39.9138 -33.3760 -24.7122 -7.1250 0.0000 -0.0000 4.0498 -10.5893 -4.7358 0.0000 -0.0000 0.0000 23.1749 -22.3141 -23.1414 -28.7338 39.7831 -10.5900 0.0000 -0.0000 -22.1814 -19.8171 -31.8585 10.7694 7.1250 -0.0000 -0.0000 14.7944 -62.8313 -6.4808
0.00 0.00 0.00 -25.7446 65.7696 -32.5912 0.0000 0.0000 0.0000 -25.5309 8.2477 -4.9206 3.9583 12.1047 36.1034 3.0181 1.0817 -33.3087 0.7855 5.6581 15.7956 0.0000 0.0000 0.0000 14.7075 -5.5598 -33.3713 -3.2836 -11.1405 32.7553 -1.2486 -5.1508 -23.5401 -0.0520 -1.4712 4.0465 -8.6789 -1.9516 22.1619 -4.4895 -3.8984 9.2370 0.9682 -1.8232 -1.9176 7.2154 10.6130 -20.4923 -4.2392 13.3215 16.1450 -0.6946 6.2256 9.1839 -0.0000 0.0000 0.0000 -97.1044 -44.1620 99.9085 82.6841 -59.7968 -53.6686 -0.0000 0.0000 -2.2687 44.9045 -37.4657 -31.2268 -7.1250 0.0000 -0.0000 5.3600 -17.0993 -6.7232 -0.0000 0.0000 0.0000 28.8752 -18.6393 -23.4568 -30.2851 41.1365 -11.5967 0.0000 -0.0000 -21.5086 -23.8867 -28.0527 11.7648 7.1250 -0.0000 -0.0000 7.7084 -60.0489 -2.8406
